<svg width="16" height="16" viewBox="0 0 16 16" fill="none" xmlns="http://www.w3.org/2000/svg">
<g clip-path="url(#clip0_4266_957)">
<path d="M13.2 2C13.3 2 13.4 2 13.48 2C13.51 3.43 13.34 6.38 11.6 8.13C10.01 9.72 8.08001 10.71 6.58001 10.71C5.99001 10.71 5.54001 10.56 5.24001 10.25C4.76001 9.77 4.65001 8.86 4.95001 7.77C5.30001 6.49 6.18001 5.07 7.36001 3.89C9.00001 2.25 11.72 2 13.2 2ZM13.2 1C11.53 1 8.54001 1.29 6.65001 3.18C3.92001 5.91 2.97001 9.4 4.53001 10.96C5.04001 11.47 5.75001 11.71 6.58001 11.71C8.29001 11.71 10.47 10.68 12.31 8.84C15.05 6.1 14.44 1.06 14.44 1.06C14.44 1.06 13.95 1 13.2 1Z" fill="#3387C5"/>
<path d="M10 7.49023C11.1046 7.49023 12 6.5948 12 5.49023C12 4.38566 11.1046 3.49023 10 3.49023C8.89543 3.49023 8 4.38566 8 5.49023C8 6.5948 8.89543 7.49023 10 7.49023Z" fill="#3387C5"/>
<path d="M4.13 5.50977C4.42 5.50977 4.67 5.57977 4.92 5.73977C4.72 6.11977 4.29 6.72977 3.78 7.35977L2.51 6.08977C2.98 5.78977 3.58 5.50977 4.14 5.50977M4.13 4.50977C2.5 4.50977 1 6.00977 1 6.00977L3.83 8.83977C3.83 8.83977 5.5 6.00977 5.95 5.29977C5.37 4.71977 4.74 4.50977 4.13 4.50977Z" fill="#3387C5"/>
<path d="M9.7499 10.5797C10.2399 11.3897 9.8299 12.3397 9.4099 12.9997L8.1399 11.7297C8.7699 11.2197 9.3799 10.7897 9.7599 10.5897M9.9699 9.46973C9.4099 10.3675 6.6499 11.6697 6.6499 11.6697L9.4799 14.4997C9.4799 14.4997 12.3099 11.6697 10.1899 9.54973C10.1399 9.49973 10.0599 9.46973 9.9699 9.46973Z" fill="#3387C5"/>
</g>
<defs>
<clipPath id="clip0_4266_957">
<rect width="13.49" height="13.49" fill="white" transform="translate(1 1)"/>
</clipPath>
</defs>
</svg>
