<svg width="16" height="16" viewBox="0 0 16 16" fill="none" xmlns="http://www.w3.org/2000/svg">
<g clip-path="url(#clip0_8847_591)">
<g clip-path="url(#clip1_8847_591)">
<path d="M9.85261 9.14641L9.14551 9.85352L14.1448 14.8528L14.8519 14.1457L9.85261 9.14641Z" fill="#3387C5"/>
<path d="M1.5 6C1.5 3.52 3.52 1.5 6 1.5C7.51148 1.5 8.85255 2.25179 9.66839 3.40056L10.534 2.89086C9.54378 1.44702 7.88295 0.5 6 0.5C2.96 0.5 0.5 2.96 0.5 6H1.5Z" fill="#3387C5"/>
<path d="M10.5002 6C10.5002 8.48 8.48023 10.5 6.00023 10.5C4.55583 10.5 3.26705 9.81345 2.44353 8.75L1.61523 9.31599C2.61834 10.6428 4.20876 11.5 6.00023 11.5C9.04023 11.5 11.5002 9.04 11.5002 6H10.5002Z" fill="#3387C5"/>
<path d="M2.2988 10.0834L3.13452 9.60093L4.46387 8.83343L1.23182 7.23535L0.999765 10.8334L2.2988 10.0834Z" fill="#3387C5"/>
<path d="M7.52344 3.03083L8.85279 2.26333L9.6885 1.78083L10.9875 1.03083L10.7555 4.62891L7.52344 3.03083Z" fill="#3387C5"/>
</g>
</g>
<defs>
<clipPath id="clip0_8847_591">
<rect width="16" height="16" fill="white"/>
</clipPath>
<clipPath id="clip1_8847_591">
<rect width="16" height="16" fill="white"/>
</clipPath>
</defs>
</svg>
