<svg width="16" height="16" viewBox="0 0 16 16" fill="none" xmlns="http://www.w3.org/2000/svg">
<mask id="path-1-inside-1_8797_499" fill="white">
<path d="M8.792 8.27309C8.57506 8.91927 8.19659 9.49929 7.69251 9.95811C7.18843 10.4169 6.57547 10.7393 5.91179 10.8947C5.24812 11.0501 4.55574 11.0333 3.90038 10.8459C3.24502 10.6585 2.64842 10.3068 2.16719 9.82403C1.68596 9.34131 1.33607 8.74361 1.15072 8.08768C0.965373 7.43174 0.950722 6.73932 1.10816 6.07612C1.26559 5.41293 1.58988 4.80097 2.05026 4.29832C2.51065 3.79567 3.09184 3.41901 3.73868 3.20407L4.05244 4.14832C3.5665 4.30979 3.12988 4.59276 2.78402 4.97038C2.43817 5.34799 2.19454 5.80772 2.07627 6.30594C1.958 6.80416 1.969 7.32434 2.10824 7.81711C2.24748 8.30988 2.51034 8.7589 2.87186 9.12154C3.23338 9.48419 3.68158 9.74844 4.17392 9.88921C4.66625 10.03 5.1864 10.0426 5.68498 9.92587C6.18356 9.80915 6.64405 9.56695 7.02274 9.22226C7.40142 8.87758 7.68575 8.44184 7.84872 7.9564L8.792 8.27309Z"/>
</mask>
<path d="M8.792 8.27309C8.57506 8.91927 8.19659 9.49929 7.69251 9.95811C7.18843 10.4169 6.57547 10.7393 5.91179 10.8947C5.24812 11.0501 4.55574 11.0333 3.90038 10.8459C3.24502 10.6585 2.64842 10.3068 2.16719 9.82403C1.68596 9.34131 1.33607 8.74361 1.15072 8.08768C0.965373 7.43174 0.950722 6.73932 1.10816 6.07612C1.26559 5.41293 1.58988 4.80097 2.05026 4.29832C2.51065 3.79567 3.09184 3.41901 3.73868 3.20407L4.05244 4.14832C3.5665 4.30979 3.12988 4.59276 2.78402 4.97038C2.43817 5.34799 2.19454 5.80772 2.07627 6.30594C1.958 6.80416 1.969 7.32434 2.10824 7.81711C2.24748 8.30988 2.51034 8.7589 2.87186 9.12154C3.23338 9.48419 3.68158 9.74844 4.17392 9.88921C4.66625 10.03 5.1864 10.0426 5.68498 9.92587C6.18356 9.80915 6.64405 9.56695 7.02274 9.22226C7.40142 8.87758 7.68575 8.44184 7.84872 7.9564L8.792 8.27309Z" stroke="#3387C5" stroke-width="2" stroke-dasharray="2 2" mask="url(#path-1-inside-1_8797_499)"/>
<path d="M9 7L15 13" stroke="#3387C5" stroke-miterlimit="10"/>
<path d="M7 9L13 15" stroke="#3387C5" stroke-miterlimit="10" stroke-dasharray="1 1"/>
<path d="M7 2C8.65 2 10 3.35 10 5C10 6.65 8.65 8 7 8C5.35 8 4 6.65 4 5C4 3.35 5.35 2 7 2ZM7 1C4.79 1 3 2.79 3 5C3 7.21 4.79 9 7 9C9.21 9 11 7.21 11 5C11 2.79 9.21 1 7 1Z" fill="#3387C5"/>
</svg>
