<svg width="16" height="16" viewBox="0 0 16 16" fill="none" xmlns="http://www.w3.org/2000/svg">
<g clip-path="url(#clip0_49_30874)">
<g clip-path="url(#clip1_49_30874)">
<path d="M8.91257 14.1583C9.82828 13.2426 10.1818 12.0617 10.15 10.7995L14.4245 6.52506L9.47472 1.57531L5.20026 5.84977C3.93808 5.81795 2.75721 6.1715 1.84151 7.08721L1.34299 7.58572L4.52498 10.7677L1.69655 13.5961L2.40365 14.3032L5.23208 11.4748L8.41406 14.6568L8.91257 14.1583ZM2.75721 7.58572C3.81787 6.52506 5.60331 6.86093 5.60331 6.86093L9.47472 2.98952L13.0103 6.52506L9.13885 10.3965C9.13885 10.3965 9.47472 12.1819 8.41406 13.2426L2.75721 7.58572Z" fill="#3387C5"/>
</g>
</g>
<defs>
<clipPath id="clip0_49_30874">
<rect width="16" height="16" fill="white"/>
</clipPath>
<clipPath id="clip1_49_30874">
<rect width="16" height="16" fill="white"/>
</clipPath>
</defs>
</svg>
