<svg width="16" height="16" viewBox="0 0 16 16" fill="none" xmlns="http://www.w3.org/2000/svg">
<g clip-path="url(#clip0_49_30865)">
<path d="M15.3535 14.6465L14.6465 15.3535L0.646484 1.35352L1.35352 0.646484L15.3535 14.6465Z" fill="#3387C5"/>
<path d="M4.69727 6.81836C4.09935 6.85169 3.32419 7.01859 2.75684 7.58594L8.41406 13.2422C8.98148 12.6746 9.14743 11.8997 9.18066 11.3018L10.0205 12.1416C9.84697 12.8892 9.49313 13.5772 8.91211 14.1582L8.41406 14.6572L5.23242 11.4746L2.40332 14.3037L1.69629 13.5957L4.52539 10.7676L1.34277 7.58594L1.8418 7.08691C2.42261 6.50621 3.11019 6.15207 3.85742 5.97852L4.69727 6.81836Z" fill="#3387C5"/>
<path d="M10.8281 10.1211L10.1504 10.7998C10.1509 10.819 10.1501 10.8382 10.1504 10.8574L9.41406 10.1211L10.1211 9.41406L10.8281 10.1211Z" fill="#3387C5"/>
<path d="M14.4248 6.52539L11.5352 9.41406L10.8281 8.70703L13.0107 6.52539L9.47461 2.98926L7.29199 5.1709L6.58496 4.46387L9.47461 1.5752L14.4248 6.52539Z" fill="#3387C5"/>
<path d="M6.58496 5.87793L5.87793 6.58496L5.1416 5.84863C5.16111 5.84894 5.18065 5.84912 5.2002 5.84961L5.87793 5.1709L6.58496 5.87793Z" fill="#3387C5"/>
</g>
<defs>
<clipPath id="clip0_49_30865">
<rect width="16" height="16" fill="white"/>
</clipPath>
</defs>
</svg>
